<mxfile host="app.diagrams.net" agent="Mozilla/5.0 (Macintosh; Intel Mac OS X 10_15_7) AppleWebKit/537.36 (KHTML, like Gecko) Chrome/131.0.0.0 Safari/537.36" version="25.0.3">
  <diagram name="Página-1" id="iz9qSDwrp2FUPFf2uvBV">
    <mxGraphModel dx="2060" dy="1141" grid="1" gridSize="10" guides="1" tooltips="1" connect="1" arrows="1" fold="1" page="1" pageScale="1" pageWidth="1169" pageHeight="827" math="0" shadow="0">
      <root>
        <mxCell id="0" />
        <mxCell id="1" parent="0" />
        <mxCell id="Na08hDHFx9R_E7P2rAtu-2" style="edgeStyle=orthogonalEdgeStyle;rounded=0;orthogonalLoop=1;jettySize=auto;html=1;entryX=0;entryY=0.5;entryDx=0;entryDy=0;entryPerimeter=0;" parent="1" source="Na08hDHFx9R_E7P2rAtu-4" target="Na08hDHFx9R_E7P2rAtu-25" edge="1">
          <mxGeometry relative="1" as="geometry">
            <mxPoint x="344" y="364" as="targetPoint" />
          </mxGeometry>
        </mxCell>
        <mxCell id="Na08hDHFx9R_E7P2rAtu-4" value="" style="image;sketch=0;aspect=fixed;html=1;points=[];align=center;fontSize=12;image=img/lib/mscae/SAP_HANA_on_Azure.svg;" parent="1" vertex="1">
          <mxGeometry x="84" y="341.5" width="90" height="45" as="geometry" />
        </mxCell>
        <mxCell id="Na08hDHFx9R_E7P2rAtu-7" style="edgeStyle=orthogonalEdgeStyle;rounded=0;orthogonalLoop=1;jettySize=auto;html=1;exitX=1;exitY=0.5;exitDx=0;exitDy=0;exitPerimeter=0;" parent="1" source="Na08hDHFx9R_E7P2rAtu-25" target="Na08hDHFx9R_E7P2rAtu-9" edge="1">
          <mxGeometry relative="1" as="geometry">
            <mxPoint x="333" y="364" as="sourcePoint" />
          </mxGeometry>
        </mxCell>
        <mxCell id="Na08hDHFx9R_E7P2rAtu-9" value="S3 BUCKET" style="sketch=0;outlineConnect=0;fontColor=#232F3E;gradientColor=none;fillColor=#7AA116;strokeColor=none;dashed=0;verticalLabelPosition=bottom;verticalAlign=top;align=center;html=1;fontSize=12;fontStyle=0;aspect=fixed;pointerEvents=1;shape=mxgraph.aws4.bucket_with_objects;" parent="1" vertex="1">
          <mxGeometry x="414" y="320.83000000000004" width="84.62" height="88" as="geometry" />
        </mxCell>
        <mxCell id="Na08hDHFx9R_E7P2rAtu-10" value="DATABRICKS&lt;br&gt;ETL / CATALOG" style="image;aspect=fixed;html=1;points=[];align=center;fontSize=12;image=img/lib/azure2/analytics/Azure_Databricks.svg;" parent="1" vertex="1">
          <mxGeometry x="604" y="319.1700000000001" width="82.8" height="89.66" as="geometry" />
        </mxCell>
        <mxCell id="Na08hDHFx9R_E7P2rAtu-26" style="edgeStyle=orthogonalEdgeStyle;rounded=0;orthogonalLoop=1;jettySize=auto;html=1;" parent="1" source="Na08hDHFx9R_E7P2rAtu-12" target="Na08hDHFx9R_E7P2rAtu-13" edge="1">
          <mxGeometry relative="1" as="geometry" />
        </mxCell>
        <mxCell id="Na08hDHFx9R_E7P2rAtu-12" value="DATABRICKS&lt;br&gt;WAREHOUSE" style="image;aspect=fixed;html=1;points=[];align=center;fontSize=12;image=img/lib/azure2/databases/SQL_Data_Warehouses.svg;" parent="1" vertex="1">
          <mxGeometry x="814" y="322.1700000000001" width="84" height="85.31" as="geometry" />
        </mxCell>
        <mxCell id="Na08hDHFx9R_E7P2rAtu-13" value="POWER BI" style="image;aspect=fixed;html=1;points=[];align=center;fontSize=12;image=img/lib/azure2/analytics/Power_BI_Embedded.svg;" parent="1" vertex="1">
          <mxGeometry x="1010" y="330" width="51" height="68" as="geometry" />
        </mxCell>
        <mxCell id="Na08hDHFx9R_E7P2rAtu-16" style="edgeStyle=orthogonalEdgeStyle;rounded=0;orthogonalLoop=1;jettySize=auto;html=1;" parent="1" source="Na08hDHFx9R_E7P2rAtu-9" target="Na08hDHFx9R_E7P2rAtu-10" edge="1">
          <mxGeometry relative="1" as="geometry" />
        </mxCell>
        <mxCell id="Na08hDHFx9R_E7P2rAtu-22" style="edgeStyle=orthogonalEdgeStyle;rounded=0;orthogonalLoop=1;jettySize=auto;html=1;entryX=-0.046;entryY=0.501;entryDx=0;entryDy=0;entryPerimeter=0;" parent="1" source="Na08hDHFx9R_E7P2rAtu-10" target="Na08hDHFx9R_E7P2rAtu-12" edge="1">
          <mxGeometry relative="1" as="geometry" />
        </mxCell>
        <mxCell id="Na08hDHFx9R_E7P2rAtu-25" value="DMS" style="sketch=0;points=[[0,0,0],[0.25,0,0],[0.5,0,0],[0.75,0,0],[1,0,0],[0,1,0],[0.25,1,0],[0.5,1,0],[0.75,1,0],[1,1,0],[0,0.25,0],[0,0.5,0],[0,0.75,0],[1,0.25,0],[1,0.5,0],[1,0.75,0]];outlineConnect=0;fontColor=#232F3E;fillColor=#01A88D;strokeColor=#ffffff;dashed=0;verticalLabelPosition=bottom;verticalAlign=top;align=center;html=1;fontSize=12;fontStyle=0;aspect=fixed;shape=mxgraph.aws4.resourceIcon;resIcon=mxgraph.aws4.database_migration_service;" parent="1" vertex="1">
          <mxGeometry x="255" y="325" width="78" height="78" as="geometry" />
        </mxCell>
        <mxCell id="gloHIEWNgY3Tykj1L-Ot-4" value="" style="rounded=1;whiteSpace=wrap;html=1;fillColor=none;dashed=1;dashPattern=12 12;strokeWidth=2;labelPosition=right;verticalLabelPosition=top;align=left;verticalAlign=bottom;fontSize=17;fontStyle=1" parent="1" vertex="1">
          <mxGeometry x="225" y="250" width="720" height="210" as="geometry" />
        </mxCell>
        <mxCell id="gloHIEWNgY3Tykj1L-Ot-5" value="&lt;meta charset=&quot;utf-8&quot;&gt;&lt;span style=&quot;color: rgb(0, 0, 0); font-family: Helvetica; font-size: 17px; font-style: normal; font-variant-ligatures: normal; font-variant-caps: normal; font-weight: 700; letter-spacing: normal; orphans: 2; text-align: left; text-indent: 0px; text-transform: none; widows: 2; word-spacing: 0px; -webkit-text-stroke-width: 0px; white-space: normal; background-color: rgb(251, 251, 251); text-decoration-thickness: initial; text-decoration-style: initial; text-decoration-color: initial; display: inline !important; float: none;&quot;&gt;AWS Cloud - Datahub&lt;/span&gt;" style="text;html=1;align=center;verticalAlign=middle;whiteSpace=wrap;rounded=0;" parent="1" vertex="1">
          <mxGeometry x="470" y="260" width="200" height="30" as="geometry" />
        </mxCell>
        <mxCell id="2CvLS_N9vjDvB-HLGBwH-4" value="ORÇAMENTO" style="rounded=1;whiteSpace=wrap;html=1;strokeColor=#5D36FF;fillColor=#F1ECFF;arcSize=24;absoluteArcSize=1;imageWidth=64;imageHeight=64;strokeWidth=1.5;verticalAlign=top;align=left;fontSize=16;fontStyle=1;spacingTop=10;spacingLeft=20;" vertex="1" parent="1">
          <mxGeometry x="170" y="570" width="290" height="290" as="geometry" />
        </mxCell>
        <mxCell id="2CvLS_N9vjDvB-HLGBwH-8" value="AQUISIÇÃO" style="rounded=1;whiteSpace=wrap;html=1;strokeColor=#5D36FF;fillColor=#F1ECFF;arcSize=24;absoluteArcSize=1;imageWidth=64;imageHeight=64;strokeWidth=1.5;verticalAlign=top;align=left;fontSize=16;fontStyle=1;spacingTop=10;spacingLeft=20;" vertex="1" parent="1">
          <mxGeometry x="570" y="570" width="290" height="290" as="geometry" />
        </mxCell>
        <mxCell id="2CvLS_N9vjDvB-HLGBwH-9" value="PLANEJAMENTO" style="rounded=1;whiteSpace=wrap;html=1;strokeColor=#5D36FF;fillColor=#F1ECFF;arcSize=24;absoluteArcSize=1;imageWidth=64;imageHeight=64;strokeWidth=1.5;verticalAlign=top;align=left;fontSize=16;fontStyle=1;spacingTop=10;spacingLeft=20;" vertex="1" parent="1">
          <mxGeometry x="160" y="951" width="290" height="290" as="geometry" />
        </mxCell>
        <mxCell id="2CvLS_N9vjDvB-HLGBwH-10" value="PROGRAMA DE PRODUÇÃO" style="rounded=1;whiteSpace=wrap;html=1;strokeColor=#5D36FF;fillColor=#F1ECFF;arcSize=24;absoluteArcSize=1;imageWidth=64;imageHeight=64;strokeWidth=1.5;verticalAlign=top;align=left;fontSize=16;fontStyle=1;spacingTop=10;spacingLeft=20;" vertex="1" parent="1">
          <mxGeometry x="510" y="951" width="290" height="290" as="geometry" />
        </mxCell>
        <mxCell id="2CvLS_N9vjDvB-HLGBwH-11" value="FATURAMENTO" style="rounded=1;whiteSpace=wrap;html=1;strokeColor=#5D36FF;fillColor=#F1ECFF;arcSize=24;absoluteArcSize=1;imageWidth=64;imageHeight=64;strokeWidth=1.5;verticalAlign=top;align=left;fontSize=16;fontStyle=1;spacingTop=10;spacingLeft=20;" vertex="1" parent="1">
          <mxGeometry x="879" y="970" width="290" height="290" as="geometry" />
        </mxCell>
        <mxCell id="2CvLS_N9vjDvB-HLGBwH-12" value="AWS Cloud" style="points=[[0,0],[0.25,0],[0.5,0],[0.75,0],[1,0],[1,0.25],[1,0.5],[1,0.75],[1,1],[0.75,1],[0.5,1],[0.25,1],[0,1],[0,0.75],[0,0.5],[0,0.25]];outlineConnect=0;gradientColor=none;html=1;whiteSpace=wrap;fontSize=12;fontStyle=0;container=1;pointerEvents=0;collapsible=0;recursiveResize=0;shape=mxgraph.aws4.group;grIcon=mxgraph.aws4.group_aws_cloud_alt;strokeColor=#232F3E;fillColor=none;verticalAlign=top;align=left;spacingLeft=30;fontColor=#232F3E;dashed=0;" vertex="1" parent="1">
          <mxGeometry x="1020" y="535" width="510" height="360" as="geometry" />
        </mxCell>
        <mxCell id="2CvLS_N9vjDvB-HLGBwH-14" value="&lt;font style=&quot;font-size: 23px;&quot;&gt;MM&lt;/font&gt;" style="image;sketch=0;aspect=fixed;html=1;points=[];align=left;fontSize=14;image=img/lib/mscae/SAP_HANA_on_Azure.svg;labelPosition=right;verticalLabelPosition=middle;verticalAlign=middle;" vertex="1" parent="1">
          <mxGeometry x="1340" y="1080" width="60" height="30" as="geometry" />
        </mxCell>
      </root>
    </mxGraphModel>
  </diagram>
</mxfile>
